HIERARCHY
ROOT Hips
{
	OFFSET 0.000000 0.000000 0.000000 
	CHANNELS 6 Xposition Yposition Zposition Zrotation Yrotation Xrotation
	JOINT LeftUpLeg
	{
		OFFSET 1.363060 -1.794630 0.839290 
		CHANNELS 3 Zrotation Yrotation Xrotation
		JOINT LeftLeg
		{
			OFFSET 2.448110 -6.726130 0.000000 
			CHANNELS 3 Zrotation Yrotation Xrotation
			JOINT LeftFoot
			{
				OFFSET 2.562200 -7.039590 0.000000 
				CHANNELS 3 Zrotation Yrotation Xrotation
				JOINT LeftToeBase
				{
					OFFSET 0.157640 -0.433110 2.322550 
					CHANNELS 3 Zrotation Yrotation Xrotation
					End Site
					{
						OFFSET 0.000000 0.000000 0.000000 
					}
				}
			}
		}
	}
	JOINT RightUpLeg
	{
		OFFSET -1.305520 -1.794630 0.839290 
		CHANNELS 3 Zrotation Yrotation Xrotation
		JOINT RightLeg
		{
			OFFSET -2.542530 -6.985550 0.000000 
			CHANNELS 3 Zrotation Yrotation Xrotation
			JOINT RightFoot
			{
				OFFSET -2.568260 -7.056230 0.000000 
				CHANNELS 3 Zrotation Yrotation Xrotation
				JOINT RightToeBase
				{
					OFFSET -0.164730 -0.452590 2.363150 
					CHANNELS 3 Zrotation Yrotation Xrotation
					End Site
					{
						OFFSET 0.000000 0.000000 0.000000 
					}
				}
			}
		}
	}
	JOINT Spine
	{
		OFFSET 0.028270 2.035590 -0.193380 
		CHANNELS 3 Zrotation Yrotation Xrotation
		JOINT Spine1
		{
			OFFSET 0.056720 2.048850 -0.042750 
			CHANNELS 3 Zrotation Yrotation Xrotation
			JOINT Neck1
			{
				OFFSET -0.054170 1.746240 0.172020 
				CHANNELS 3 Zrotation Yrotation Xrotation
				JOINT Head
				{
					OFFSET 0.104070 1.761360 -0.123970 
					CHANNELS 3 Zrotation Yrotation Xrotation
					End Site
					{
						OFFSET 0.000000 0.000000 0.000000 
					}
				}
			}
			JOINT LeftArm
			{
				OFFSET 3.362410 1.200890 -0.311210 
				CHANNELS 3 Zrotation Yrotation Xrotation
				JOINT LeftForeArm
				{
					OFFSET 4.983000 -0.000000 -0.000000 
					CHANNELS 3 Zrotation Yrotation Xrotation
					JOINT LeftHand
					{
						OFFSET 3.483560 -0.000000 -0.000000 
						CHANNELS 3 Zrotation Yrotation Xrotation
						JOINT LeftHandIndex1
						{
							OFFSET 0.715260 -0.000000 -0.000000 
							CHANNELS 3 Zrotation Yrotation Xrotation
							End Site
							{
								OFFSET 0.000000 0.000000 0.000000 
							}
						}
					}
				}
			}
			JOINT RightArm
			{
				OFFSET -3.136600 1.374050 -0.404650 
				CHANNELS 3 Zrotation Yrotation Xrotation
				JOINT RightForeArm
				{
					OFFSET -5.241900 -0.000000 -0.000000 
					CHANNELS 3 Zrotation Yrotation Xrotation
					JOINT RightHand
					{
						OFFSET -3.444170 -0.000000 -0.000000 
						CHANNELS 3 Zrotation Yrotation Xrotation
						JOINT RightHandIndex1
						{
							OFFSET -0.622530 -0.000000 -0.000000 
							CHANNELS 3 Zrotation Yrotation Xrotation
							End Site
							{
								OFFSET 0.000000 0.000000 0.000000 
							}
						}
					}
				}
			}
		}
	}
}
MOTION
Frames: 7
Frame Time: 0.041667
6.368174 26.037043 -7.146637 -169.000930 -41.478762 173.290057 -5.153606 4.991918 -45.745975 0.543764 12.380879 31.647673 6.153447 -4.623884 47.685823 0.460300 -4.352000 -12.069000 4.853989 -9.223929 -39.859758 -4.893546 -11.633583 28.638358 5.719379 -27.014501 35.077508 -1.152100 6.815000 -19.168400 0.582295 2.893614 -2.709725 2.240212 0.727279 -2.731228 5.798827 -9.829836 6.586701 2.716800 -5.130000 6.218300 -24.471071 23.873222 -2.573452 12.813380 -27.818532 -14.387847 -3.647066 -4.215217 -14.595357 -7.125000 0.000000 0.000000 18.934811 -9.095211 15.117566 -30.211303 37.936345 -27.190760 2.988711 3.874699 -2.504524 7.125000 0.000000 0.000000 
6.195406 25.759228 -7.626052 -169.217519 -41.430792 173.207732 -4.265726 4.805914 -43.748155 0.368466 11.903381 29.894629 5.980942 -2.336118 48.681687 0.475200 -4.421200 -12.264700 4.290711 -9.248243 -38.691440 -4.639917 -11.326485 27.217332 5.354380 -27.721459 36.814890 -1.115600 6.709800 -18.858600 0.550676 3.062559 -2.725238 2.260786 0.863926 -2.318239 5.754874 -9.955288 6.714079 2.700000 -5.207100 6.264000 -23.166853 24.658465 -0.698409 12.794011 -27.926955 -14.623141 -3.711739 -4.208236 -13.560411 -7.125000 0.000000 0.000000 17.621160 -9.935247 15.867747 -31.442890 38.607260 -29.022195 2.915213 4.062398 -2.873190 7.125000 0.000000 0.000000 
6.018615 25.469568 -8.110384 -169.420890 -41.366519 173.074615 -3.429169 4.597372 -41.783172 0.264944 11.480274 28.333556 5.811655 -0.121418 49.692375 0.470200 -4.398200 -12.199700 3.703266 -9.214977 -37.463222 -4.376829 -11.025377 25.801387 4.931980 -28.433423 38.568912 -1.074100 6.588200 -18.500800 0.515408 3.253840 -2.736398 2.251580 1.008201 -1.918919 5.718313 -10.100728 6.855236 2.682200 -5.292600 6.317400 -22.060038 25.401509 1.334395 12.993020 -28.209597 -15.014514 -3.742556 -4.174713 -12.474385 -7.125000 0.000000 0.000000 16.503769 -10.778021 16.527965 -32.788790 39.348096 -31.001241 2.843516 4.231094 -3.135816 7.125000 0.000000 0.000000 
5.838583 25.167726 -8.599857 -169.610848 -41.298148 172.905765 -2.635556 4.360386 -39.856571 0.190507 11.089356 26.917340 5.695992 1.885864 50.774556 0.435000 -4.232300 -11.731300 3.092294 -9.121433 -36.182964 -4.108505 -10.730825 24.386958 4.451654 -29.187833 40.359334 -1.030100 6.455900 -18.113200 0.481541 3.449060 -2.741892 2.236987 1.150662 -1.531909 5.694361 -10.246770 7.012421 2.671100 -5.378000 6.381600 -21.199557 26.143785 3.428700 13.419463 -28.679458 -15.577965 -3.732899 -4.129322 -11.453189 -7.125000 0.000000 0.000000 15.584488 -11.596205 17.061646 -34.229136 40.157114 -33.098281 2.779143 4.376267 -3.218548 7.125000 0.000000 0.000000 
5.655757 24.853369 -9.094470 -169.804957 -41.232322 172.734925 -1.891492 4.074776 -38.002627 0.114992 10.725525 25.665996 5.675418 3.515357 51.907301 0.366200 -3.887000 -10.759100 2.449414 -8.930829 -34.874758 -3.848820 -10.458809 23.036272 3.925729 -29.964419 42.126417 -0.982500 6.309500 -17.685200 0.449996 3.640763 -2.742167 2.224785 1.288939 -1.164995 5.685270 -10.388909 7.183268 2.669900 -5.461600 6.455000 -20.613214 26.906168 5.470217 14.062673 -29.326460 -16.309979 -3.683690 -4.080718 -10.555543 -7.125000 0.000000 0.000000 14.869758 -12.382856 17.426703 -35.757308 41.042294 -35.304946 2.724908 4.502260 -3.186179 7.125000 0.000000 0.000000 
5.470696 24.524930 -9.594448 -170.004013 -41.173407 172.586902 -1.204798 3.741038 -36.252256 0.017258 10.380443 24.576362 5.768012 4.683322 53.080116 0.265600 -3.315600 -9.158700 1.788738 -8.635950 -33.569971 -3.597461 -10.212757 21.786951 3.327931 -30.684150 43.880025 -0.932300 6.150600 -17.222100 0.422139 3.822352 -2.737604 2.220812 1.421393 -0.816826 5.689113 -10.520664 7.364630 2.677300 -5.540000 6.533800 -20.314453 27.717491 7.374861 14.918380 -30.147282 -17.216106 -3.601713 -4.035556 -9.840532 -7.125000 0.000000 0.000000 14.362571 -13.124590 17.603795 -37.359689 42.006453 -37.599649 2.681555 4.614456 -3.035671 7.125000 0.000000 0.000000 
5.283623 24.182076 -10.100013 -170.222672 -41.140716 172.491423 -0.587327 3.348733 -34.620028 -0.122493 10.046283 23.656400 5.973281 5.302210 54.237140 0.155100 -2.537900 -6.994800 1.109481 -8.225813 -32.285621 -3.355430 -9.994540 20.672625 2.649625 -31.269992 45.606595 -0.871900 5.953500 -16.649600 0.396642 3.993205 -2.728762 2.232539 1.548162 -0.482600 5.709638 -10.647464 7.556462 2.698700 -5.616000 6.626200 -20.305234 28.570750 9.063658 15.967012 -31.120939 -18.283851 -3.497521 -3.999872 -9.310183 -7.125000 0.000000 0.000000 14.075281 -13.833563 17.550114 -39.039915 43.062660 -39.989833 2.648407 4.718339 -2.856501 7.125000 0.000000 0.000000 
